<svg id="Layer_1" data-name="Layer 1" xmlns="http://www.w3.org/2000/svg" viewBox="0 0 800 800"><defs><style>.cls-1{fill:#333;}</style></defs><title>Logo</title><path class="cls-1" d="M731.61,87.13a255.85,255.85,0,0,0-81.49-62.49A244.24,244.24,0,0,0,542.83,0H.25V497.24H.41C.13,501.16,0,505.12,0,509.09V800H228.43V568.48c0-12.72,10.79-23,24.11-23h92.91L567.83,800H799.76V284.58q.24-5.91.24-11.85C800,203.52,775.71,137.6,731.61,87.13Zm-498.1,385.6c-44.79,0-81.22,34.8-81.22,77.57v177H76.14V509.09c0-57.1,47.33-105,106.45-108.82,1.3-.09,2.58-.17,3.89-.21l.64,0h.17c.92,0,1.86,0,2.81,0h28.28l63.54,72.73ZM723.62,727.27H603.45L444.61,545.45,254,327.27,158.72,218.18h-6.18V330.84c-.52.09-1,.2-1.56.31l-2.25.46-2.22.49c-1.48.34-3,.69-4.44,1-.77.18-1.55.38-2.32.58-2.9.77-5.76,1.59-8.62,2.48-1.46.44-2.9.92-4.34,1.4-.62.21-1.24.41-1.85.64s-1.23.43-1.85.66c-.87.3-1.72.62-2.57.94l-2.5,1c-1.37.54-2.73,1.1-4.08,1.65l-.59.25c-.91.38-1.83.77-2.74,1.17l-2.71,1.21-2.71,1.26c-1.79.84-3.58,1.72-5.34,2.65l-2.36,1.23c-1.85,1-3.68,2-5.5,3l-2.28,1.34q-2.28,1.33-4.53,2.77l-1.84,1.18-2,1.28c-.76.51-1.52,1-2.27,1.54l-2.7,1.89V145.45h-.26V72.73h54.73L144.19,88l50.15,57.41,52.12,59.67,11.42,13.06,95.31,109.09,52.12,59.66L416.72,400l63.53,72.73,51.41,58.86,12.1,13.85L647.47,664.13V522c.8-.37,1.59-.75,2.39-1.14a254.86,254.86,0,0,0,73.76-54ZM357.05,218.18H543.32c3.43,0,8.81,3.52,13.34,8.69C566.28,237.9,572,255,572,272.73s-5.74,34.81-15.33,45.79c-4.58,5.24-10,8.75-13.38,8.75h-91Zm366.81,55.36c-.19,51.9-18.18,100.94-50.7,138.18a181.11,181.11,0,0,1-57.45,44.21,170.07,170.07,0,0,1-23.63,9.34l-14.76,5.06-.89-1L515.88,400h27.44c26.64,0,52.13-12.38,71.83-34.87,21-24,33-57.71,33-92.4s-12-68.37-33-92.45c-19.65-22.46-45.15-34.83-71.8-34.83H293.52L230,72.73H542.83a165.76,165.76,0,0,1,72.85,16.79,180.56,180.56,0,0,1,57.48,44.2c32.69,37.42,50.7,86.79,50.7,139Z"/></svg>